/* XPM */
static char *b99ba20165244c59c4fbe6516463c3c2WRAg2kPFwyvbeiYl[] = {
/* columns rows colors chars-per-pixel */
"64 64 256 2 ",
"   c black",
".  c #1F170B",
"X  c #170F07",
"o  c #4B4B4B",
"O  c white",
"+  c #1B1B1B",
"@  c #131313",
"#  c #0B0B0B",
"$  c #070707",
"%  c #2F371F",
"&  c #232B0F",
"*  c #171F07",
"=  c #0F1700",
"-  c #4F3B2B",
";  c #473323",
":  c #3F2B1B",
">  c #FFB7B7",
",  c #F7ABAB",
"<  c #F3A3A3",
"1  c #EB9797",
"2  c #E78F8F",
"3  c #DF8787",
"4  c #DB7B7B",
"5  c #D37373",
"6  c #CB6B6B",
"7  c #C76363",
"8  c #BF5B5B",
"9  c #BB5757",
"0  c #B34F4F",
"q  c #AF4747",
"w  c #A73F3F",
"e  c #A33B3B",
"r  c #9B3333",
"t  c #972F2F",
"y  c #8F2B2B",
"u  c #8B2323",
"i  c #831F1F",
"p  c #7F1B1B",
"a  c #771717",
"s  c #731313",
"d  c #6B0F0F",
"f  c #670B0B",
"g  c #5F0707",
"h  c #5B0707",
"j  c #530707",
"k  c #4F0000",
"l  c #470000",
"z  c #430000",
"x  c #FFEBDF",
"c  c #FFE3D3",
"v  c #FFDBC7",
"b  c #FFD3BB",
"n  c #FFCFB3",
"m  c #FFC7A7",
"M  c #FFBF9B",
"N  c #FFBB93",
"B  c #FFB383",
"V  c #F7AB7B",
"C  c #EFA373",
"Z  c #E79B6B",
"A  c #DF9363",
"S  c #D78B5B",
"D  c #CF8353",
"F  c #CB7F4F",
"G  c #BF7B4B",
"H  c #B37347",
"J  c #AB6F43",
"K  c #A36B3F",
"L  c #9B633B",
"P  c #8F5F37",
"I  c #875733",
"U  c #7F532F",
"Y  c #774F2B",
"T  c #6B4727",
"R  c #5F4323",
"E  c #533F1F",
"W  c #4B371B",
"Q  c #3F2F17",
"!  c #332B13",
"~  c #2B230F",
"^  c #EFEFEF",
"/  c #E7E7E7",
"(  c #DFDFDF",
")  c gray86",
"_  c LightGray",
"`  c #CBCBCB",
"'  c gray78",
"]  c gray75",
"[  c #B7B7B7",
"{  c gray70",
"}  c gray67",
"|  c #A7A7A7",
" . c #9F9F9F",
".. c #979797",
"X. c #939393",
"o. c #8B8B8B",
"O. c #838383",
"+. c gray50",
"@. c #777777",
"#. c #6F6F6F",
"$. c gray42",
"%. c gray39",
"&. c #5B5B5B",
"*. c gray34",
"=. c gray31",
"-. c gray28",
";. c #434343",
":. c gray23",
">. c #373737",
",. c #2F2F2F",
"<. c #272727",
"1. c #232323",
"2. c #77FF6F",
"3. c #6FEF67",
"4. c #67DF5F",
"5. c #5FCF57",
"6. c #5BBF4F",
"7. c #53AF47",
"8. c #4B9F3F",
"9. c #439337",
"0. c #3F832F",
"q. c #37732B",
"w. c #2F6323",
"e. c #27531B",
"r. c #1F4317",
"t. c #17330F",
"y. c #13230B",
"u. c #0B1707",
"i. c #BFA78F",
"p. c #B79F87",
"a. c #AF977F",
"s. c #A78F77",
"d. c #9F876F",
"f. c #9B7F6B",
"g. c #937B63",
"h. c #8B735B",
"j. c #836B57",
"k. c #7B634F",
"l. c #775F4B",
"z. c #6F5743",
"x. c #67533F",
"c. c #5F4B37",
"v. c #574333",
"b. c #533F2F",
"n. c #9F8363",
"m. c #8F7753",
"M. c #836B4B",
"N. c #775F3F",
"B. c #675333",
"V. c #5B472B",
"C. c #4F3B23",
"Z. c #43331B",
"A. c #7B7F63",
"S. c #6F7357",
"D. c #676B4F",
"F. c #5B6347",
"G. c #53573B",
"H. c #474F33",
"J. c #3F472B",
"K. c #373F27",
"L. c #FFFF73",
"P. c #EBDB57",
"I. c #D7BB43",
"U. c #C39B2F",
"Y. c #AF7B1F",
"T. c #9B5B13",
"R. c #874307",
"E. c #732B00",
"W. c white",
"Q. c #FFDBDB",
"!. c #FFBBBB",
"~. c #FF9B9B",
"^. c #FF7B7B",
"/. c #FF5F5F",
"(. c #FF3F3F",
"). c #FF1F1F",
"_. c red",
"`. c #EF0000",
"'. c #E30000",
"]. c #D70000",
"[. c #CB0000",
"{. c #BF0000",
"}. c #B30000",
"|. c #A70000",
" X c #9B0000",
".X c #8B0000",
"XX c #7F0000",
"oX c #730000",
"OX c #670000",
"+X c #5B0000",
"@X c #4F0000",
"#X c #430000",
"$X c #E7E7FF",
"%X c #C7C7FF",
"&X c #ABABFF",
"*X c #8F8FFF",
"=X c #7373FF",
"-X c #5353FF",
";X c #3737FF",
":X c #1B1BFF",
">X c blue",
",X c #0000E3",
"<X c #0000CB",
"1X c #0000B3",
"2X c #00009B",
"3X c #000083",
"4X c #00006B",
"5X c #000053",
"6X c white",
"7X c #FFEBDB",
"8X c #FFD7BB",
"9X c #FFC79B",
"0X c #FFB37B",
"qX c #FFA35B",
"wX c #FF8F3B",
"eX c #FF7F1B",
"rX c #F37317",
"tX c #EB6F0F",
"yX c #DF670F",
"uX c #D75F0B",
"iX c #CB5707",
"pX c #C34F00",
"aX c #B74700",
"sX c #AF4300",
"dX c white",
"fX c #FFFFD7",
"gX c #FFFFB3",
"hX c #FFFF8F",
"jX c #FFFF6B",
"kX c #FFFF47",
"lX c #FFFF23",
"zX c yellow",
"xX c #A73F00",
"cX c #9F3700",
"vX c #932F00",
"bX c #872300",
"nX c #4F3B27",
"mX c #432F1B",
"MX c #372313",
"NX c #2F1B0B",
"BX c #000053",
"VX c #000047",
"CX c #00003B",
"ZX c #00002F",
"AX c #000023",
"SX c #000017",
"DX c #00000B",
"FX c cyan",
"GX c #FF9F43",
"HX c #FFE74B",
"JX c #FF7BFF",
"KX c magenta",
"LX c #CF00CF",
"PX c #9F009B",
"IX c #6F006B",
"UX c #A76B6B",
/* pixels */
"P P P P P P P P P P U R E R E R E T T I P P L K R W W W W W R U U I L L L L L L L I R K L L L L L L L L I W L P P P P P P P P P ",
"P P P P P P P P P U E E R E E E R T Y P P L K K W W W W W W U U U I E I L L L L I R K L L L L L L L L I W L P P P P P P P P P P ",
"P P P P P P P U R R E E E E R R R T U P L K K U R W W W W R U U I E W W I L L I I K L L L P P P L L I W U L P P I P P P P P P P ",
"P P P P P P U R E E E R E E E R T Y U L K K U R T R W W R U P I E oXW W W E I I R K L L P P L L L I W W L P P P P P P P P I I P ",
"P P P P U R E W W R W W T R T T U P L K K R R T Y Y R W U I I E E W E W E W W R K L P L P L L L I ! ! E L P P P P P P I P P P P ",
"P P P U R ! E W E W T R T T T U P K K U R T T Y Y Y R U I Y R oXW E W W W W Q K L L P P L P L I ! ! ! L P P I I I P P P P I P P ",
"P U U Q ! E W E W T T T U U U I K L R T Y Y Y Y I U L I Y R E E E E E W E Q L L P P L I L L I ! ! ! ! R P P P P I P I P I P P P ",
"U R Q ! W W E E T U U U U I L L L R T Y Y Y U I I L I Y R R E E R W W E Q P I L I I ].P L I W ! E Y W ! R I I I I I I P P I P P ",
"R ! ! Q T U U U U I I L L P I R R Y Y Y U I I L P P Y R R E oXE R E R E Q I P L I P I L I W E Y Y Y W W ! R Y P I P I P I P P U ",
"! Q E E E T L L L L P L P R R T Y Y U I I I L P I Y R R R R E oXE oXE Q T Y P I I I L I W E Y Y I W W W W ! R I P I I I P I U R ",
"E T U U T E L L L L L R R T Y Y U P I P I L P Y Y R R XXE R R oXE R Q U T R R I P I I W R Y I I Y W W E W ! R R U I P I U U E ! ",
"U U P I I Y E L P T R E Y Y Y U I I I I L I I Y R R R E R R oXoXR Q R U T R W W I I W R U I I P R E W W W ! W W W U I U R R Q T ",
"P P Y E E E E T T T U T E T U U I P I L I Y Y R R R R R R R oXoX+XE R [.T R R W W R U U I I P P Y W E E W ! ! ! ! W R R E T U U ",
"Y Y W W W W W W U U U P L T W W I I L L U Y R R R R R E R R oXoX+XR T L U T R W U U T T I P P L I Y E E W ! U R ! W R T U U U L ",
"P I Y Y W W W W U U I I P L T W W L L L L U R R R R R E R R oX+Xk T P P P T R U U T R I P P L P P I Y E W ! R U W R U U U U L P ",
"P P P P I Y W W U U I P I L T W W L L L L U U R R R R R R E oX+XT [.P }.P  XR U T R Y P L L L L P P Y Y W ! Q R U U U U U U L P ",
"P P P P P P P E U U I E P P I T L P L L L L U U R R R R R W k OXY U  XU P U Y T R Y P L [.L L L L P I U U R Q U U U U U U L P P ",
"P P P P P P U E U U T R E I T W L L L L L L L U R R R R W Q k OXU }.U  XI I Y R I  XL L L P P P L L I W E R E E U U U U U L P I ",
"P P P P P U E U U U U T R E U L P P P L P L L L U R R W Q k OXOX X XU U XXXXT I P L L P P P P P L I W W E R R E E U U U L P I P ",
"I I P P U E U U U U U U U W L R P I L P P L L L I U W Q k +XOXXX XXXXXY R U  XP [.[.P P I P P L I W W W E R R R E U U L P P I I ",
"I I P U E U U U R U U U U L U R R I P P P L L L L U Q z z +XOXXXXXR W Q R  X[.{.L I I U I L I I W W W E R R R R E U U L P P I P ",
"I P U E U U P Y R R U U I L R R R R I L L L L L P R z z k +XOXOXOXQ OXOX XL L P I U U I L I L I R R P P P U R R E U L P I I I I ",
"U U E U P P Y R R Q U I L U R R R R R L P L L U R z k k z k z z z z z I L I I Y U I U T I P I W P R P P P U R E U U L I Y P U U ",
"U E U P Y R R R W Q R I L R R R R R E W P U R XXOXOX+X+X+Xk >.*.OXY z z W Y U I I Y I U U I W T R U U P P P U E U L P I I Y U P ",
"E U K R R R R R Q E I L U R R R R R E W I P I T oXoXOX+XOX+X>.>.OXP U Q +XW Y U I I U P I W U U E R U U P P U U U P I U Y Y I Y ",
"U K P P R R R Q Q U L U R R R R R E W T P L I I T T +XOXOXz +XOX XP P Y Q +X+XU U I I U W T U R E W U U U L U U I U Y U Y Y Y E ",
"K P P P P R W Q U L L U R R R R R E W P L I I I I  XOXOXz z oXP P `.L Y R +X+X+XU U P W T P U E E W I I R R U P U T Y Y U Y E P ",
"P P P P U Q Q E L L U R R R R R R W T L I I I I I R OXOXz .X XU L P P P P W +X+X+XE E T L U T R W R I I R R P U R W T Y Y E P K ",
"P I P P T Q Q I L K U R R R R R E W L I I I I I I I OXz W .X XI U P P P P P R +X+XE U P I U E R W R L I U P U R W Q Q T E P K P ",
"P I P U E Q I L K U R R R R R E W T I P I I I I I T z W .XU {.Y U U P P P P P E +XI P L U T R W R R R R P U R E W Q Q W U K P I ",
"I I P T Q U L K U T R R R R R E W P I I I I I I T z W R .XU Y Y E U U P P P Y  X XP K L U R R W U R U P U R R W E E Q E U P P P ",
"I I U Q E L K P I U T R R R E W T P I P I P I T z W R .XU I Y Y T E Y Y W T  X XP K K U T T W R U U P P U U R E Q ~ ~ U P U I I ",
"I I T E I L P P P I U T R R E W I L P I I I T z W R U {.I Y Y Y T E E ! oX X XP K K F T T R W U U P P P P U Q ~ ~ ~ ! W U U I P ",
"P U E I L P P P P P I U T E W T I L P P P T Q z R U U I Y Y Y Y T E ! +XoX XI K K F I I T W R U P P P P P Q ~ ~ ~ Q W ! E U P I ",
"P E E P L P P P P P P I U T W R U I L P T z E R U U [.I Y Y Y Y R ! +X+XR U L K K L L I R W U P P P P P Q ~ ~ ~ Q E T W ! E I I ",
"P E I L P P P P P P P P I R R Y U I T T Q R R U I I I I U Y Y T E +XQ R I L K L L L L L E R P P P P P U ~ ~ ~ Q E T E E W ! U P ",
"U U L P P P P P P P P U R R R Y U T Q Q U U P P P I I I I U Y E ! W W R U L L L L L L U E U P P P P P Q ~ ~ Q E E T E E E W U P ",
"E L P P P P P P P P U R R R R Y T Q E E P P P P P P I I I I U ! W W R R U I L L L L L E E P P P P P E ~ ~ Q E E T E E E W T U U ",
"! P P P P P P P P U R R R R R T Q U E W I P P P P P I I I I U ! Q W R R R I L L L L Y E P P P P P U ~ Q Q E E E T E E E W R U E ",
"! ! P P P P P P U R R R R R E W I Y E Q E P P P P P P I I I R Q Q W W R R Y I L L L R P P P P P P E ~ Q E T P T E E E E Q R U ! ",
"! ! ! P P P P T W W W E R W W I I Y E Q Q E P P P P P I I Y W W W Q Q Q T R I L L Y ! R T P P P U ~ E E I P L T T E E W Q E E ! ",
"W Q E ! P I T T W W W E E W I I I E E Q Q W I P P P P I Y W W W W W Q Q Q T T I Y E ! ! R T P P E E T I P L K I T E E Q ~ Q E ! ",
"Q W W E I T T R R W W E T I I P Y E E W Q Q W P P I U P R R E W E R E E Q R T I L U E ! ! R T U T U I P L K L P T T E ~ ~ ~ Q ! ",
"W E E I T T R T R T E W T I P I E E W Q E Q W E I U P R R E R E W W W E Y I I L K P U E ! ! W T U I I P K L P P I T W ! ~ Q ! ! ",
"W E I T T R T R R R T T I I P Y E E Q W W W W E U P Y R E W E E W E E R Y I L K L L P U E ! E U I I P K L P P P P T R ! ~ ! W ! ",
"E I T T R T T R R R R I I P I E E W Q W E E E U L P R R R R E R E R R E I I K L L P I P U E R I I P L L P P P P P T Q ~ ! ~ ! E ",
"I T T T T R T R T T I I P P Y E W E E E E Q Q K L Y R E R E W W E W E E I I L L P P P P P U T I I P K P P P P P U R ! ! ~ Q E U ",
"T T T R T T R R T T I P L I E E E E W E Q Q P K Y R R R R R R R E W R R I L L P I P P P P P T I P L P P P P P P U R ~ ~ Q E I I ",
"T T T R T T T T T I P P L Y E E E E W Q ~ T K L U T R R R E R E E R R Y I L P P P P I P P T T P L P P P P P P U R ! Q ~ E I I T ",
"T Y T T T R T T I P P L Y E E E E Q Q ~ T K L I U U T R R R R R E E E U U P P P I I P P P T U L P I P P P P P U R ! Q E I L I T ",
"T Y T Y Y T T I I P L Y E E E E Q Q ~ ~ P L P P I U U T R R R R R R W T Y P P P P P P P T U L I P P P I P P U R Q Q E I L T T T ",
"T Y Y Y T T T I P L L P U E E Q ! ~ ~ E K L P P P I U U T R R R R R W R T U P P P P Y T U P L P I I P P P P U R Q E T P L P T T ",
"Y T Y T Y T I P L L P I I U E E ~ ~ ~ P L P P P P P I U U T R R R E E R T U P P P T E U P L I I I I P I P U R W Q E I L L I P T ",
"P T Y T T I P L P I I I I T E ! ~ ~ E K L P P P P P P I U U T R R W E E R U P P P E T P L U P U P P I P I U R W W T L L P P P I ",
"P I Y T I I L P I I U I I E ! ~ ~ ~ P L P P P P P P P P I U U T R W Q E R T U P E T U I I U I U I I I P U R W W T P L P P I P I ",
"P P U U I L I I I I I I U E ! ~ ~ E L L P P P P P P P P P I U U E Q ! E E T U E T U P U I U U I U U P I U R W W T L P I P P P I ",
"P U U I L I I I U I I I U E ~ ~ E I L I P P P P P P P P P P I U ! ! ! E E T W E U P U P I U I U U I I T R W W T L P I P P P I I ",
"U U U L I I U I I I U U U E ~ ~ E L P P P P P P P P P P P P P E ~ ~ ~ ~ E Q W T I I U U U U U I U U I T W W T I L I I I P I P P ",
"U U L I I I I I U Y I U T ! ~ E I P I P P P P P P P P P P I E ! ~ ~ ~ ~ ! Q T I U Y Y R U R U U U I T R W T I L I I P I P P I P ",
"U U U I I U U Y U U U I T ! ~ U P I P I I I P P P P P P I E ~ ~ ~ ~ ~ ~ ~ Q R Y Y R R Y R U Y Y U U T W W T L I I I I P I P P P ",
"U E U Y U U I Y U U Y U E ~ E I I I I I I I I P P I P I E ~ ~ ~ ~ ~ ~ ~ ~ ~ Q R R Y R Y U Y U R I T R W T L I I P I I I I P I I ",
"Q Q E E Y Y U Y Y U Y U E ~ U U I I I I I P I P I P T E ~ ! ~ ~ ~ ~ ~ ~ ~ ~ ! R R R R R Y Y Y R U T W T L I I I I I I I I I I Q ",
"Q Q Q Q E Y U Y Y U U T ~ U U U U U I I P I I P I T ~ ~ Q ~ ~ ~ ~ ~ ~ ~ ~ ~ ~ ! R R R U R R Y I T R W U I I I I P I I P P I I Q ",
"Q Q Q Q Q Q E Y Y Y U E U U U U U U U U I P P Y T ~ E E Q ~ ~ ~ ~ ~ ~ ~ ~ ! ! ! E R R R Y Y Y U R W U I I I I I I I I I I I Q Q "
};
